<svg width="164" height="34" xmlns="http://www.w3.org/2000/svg">

 <g>
  <title>background</title>
  <rect fill="none" id="canvas_background" height="36" width="166" y="-1" x="-1"/>
 </g>
 <g>
  <title>Layer 1</title>
  <g id="svg_1">
   <path id="svg_2" d="m48.618284,7.61438c-2,-1 -4.1,-1.4 -6.4,-1.4c-2.2,0 -4.2,0.4 -6.1,1.2s-3.5,1.8 -5,3.2c-1.4,1.4 -2.5,3 -3.3,4.8c-0.8,1.8 -1.2,3.7 -1.2,5.6c0,2.6 0.6,4.8 1.8,6.8c1.2,2 2.9,3.5 5,4.6c2.1,1.1 4.3,1.6 6.8,1.6c2.1,0 4,-0.4 5.8,-1.1c1.8,-0.7 3.4,-1.8 4.8,-3.1c1.4,-1.3 2.4,-2.9 3.2,-4.8c0.8,-1.9 1.2,-3.8 1.2,-6c0,-2.8 -0.6,-5.2 -1.8,-7.1c-1.2,-1.9 -2.8,-3.3 -4.8,-4.3zm-3,14.8c-0.5,1.2 -1.2,2.1 -2.1,2.9c-0.9,0.7 -1.9,1.1 -3.1,1.1c-1.4,0 -2.6,-0.5 -3.4,-1.5c-0.9,-1 -1.3,-2.2 -1.3,-3.7c0,-1 0.2,-2.1 0.6,-3.3c0.4,-1.2 1.1,-2.2 2,-3c0.9,-0.8 2,-1.2 3.4,-1.2c1.4,0 2.5,0.5 3.3,1.4c0.9,0.9 1.3,2.2 1.3,3.8c0,1.2 -0.2,2.4 -0.7,3.5z" fill="#FF6F26"/>
   <path id="svg_3" d="m162.318284,6.81438c-0.7,-0.1 -1.3,-0.2 -2,-0.3c-0.7,-0.1 -1.4,-0.1 -2,-0.2c-0.7,-0.1 -1.3,-0.1 -1.8,-0.1c-2.7,0 -4.1,0.2 -6.4,0.6c-2.3,0.4 -4.3,0.9 -6,1.3l-4,25.3l9.1,0l3.2,-20.4c0.4,-0.1 2.2,-0.4 2.8,-0.4c1.3,0 2.4,0.1 3.5,0.3c1.1,0.2 2,0.4 2.8,0.5l2.5,-6.2c-0.5,-0.2 -1,-0.3 -1.7,-0.4z" fill="#FF6F26"/>
   <polygon id="svg_4" points="109.41832183301449,-0.08561937510967255 94.51832030713558,33.414363861083984 102.8183233588934,33.414363861083984 118.51832030713558,-0.08561937510967255 " fill="#FF6F26"/>
   <polygon id="svg_5" points="28.318277582526207,6.614379405975342 27.818277582526207,6.614379405975342 4.118284687399864,6.614379405975342 3.2182850688695908,12.814380645751953 14.518284067511559,12.814380645751953 0.11828454956412315,33.414363861083984 0.4182850569486618,33.414363861083984 24.4182817786932,33.414363861083984 25.318277582526207,27.01436424255371 14.118281587958336,27.01436424255371 " fill="#FF6F26"/>
   <polygon id="svg_6" points="96.41832183301449,10.014383316040039 87.3183233588934,10.014383316040039 93.11831878125668,33.414363861083984 98.3183233588934,21.414363861083984 " fill="#FF6F26"/>
   <path id="svg_7" d="m133.418284,7.51438c-1.7,-0.9 -3.6,-1.3 -5.7,-1.3c-2.8,0 -5.3,0.7 -7.5,2.1c-2.2,1.4 -4,3.2 -5.2,5.6c-1.3,2.3 -1.9,4.9 -1.9,7.6c0,1.8 0.4,3.7 1.1,5.6c0.8,1.9 2.2,3.5 4.3,4.8c2.1,1.4 5,2 8.6,2c1.7,0 3.1,-0.1 4.3,-0.4c1.1,-0.3 2.6,-0.8 4.5,-1.5l1.3,-6.6c-2,0.8 -3.7,1.4 -5.1,1.8c-1.4,0.4 -3,0.6 -4.9,0.6c-3.6,0 -5.5,-1.9 -5.5,-5.6l17,0c0.2,-1.4 0.4,-2.7 0.4,-3.9c0,-2.7 -0.5,-4.9 -1.6,-6.8c-0.9,-1.7 -2.3,-3.1 -4.1,-4zm-2.7,9.7c0,0.1 0,0.2 0,0.4l-8.2,0c0.6,-1.6 1.3,-2.9 2,-3.9c0.7,-1 1.7,-1.5 3,-1.5c2.1,0 3.1,1.5 3.1,4.5c0.1,0.3 0.1,0.4 0.1,0.5z" fill="#FF6F26"/>
   <path id="svg_8" d="m79.718284,7.61438c-2,-1 -4.1,-1.4 -6.4,-1.4c-2.2,0 -4.2,0.4 -6.1,1.2c-1.9,0.8 -3.5,1.8 -5,3.2c-1.4,1.4 -2.5,3 -3.3,4.8c-0.8,1.8 -1.2,3.7 -1.2,5.6c0,2.6 0.6,4.8 1.8,6.8c1.2,2 2.9,3.5 5,4.6c2.1,1.1 4.3,1.6 6.8,1.6c2.1,0 4,-0.4 5.8,-1.1c1.8,-0.7 3.4,-1.8 4.8,-3.1c1.4,-1.3 2.4,-2.9 3.2,-4.8c0.8,-1.9 1.2,-3.8 1.2,-6c0,-2.8 -0.6,-5.2 -1.8,-7.1c-1.2,-1.9 -2.8,-3.3 -4.8,-4.3zm-3,14.8c-0.5,1.2 -1.2,2.1 -2.1,2.9c-0.9,0.7 -1.9,1.1 -3.1,1.1c-1.4,0 -2.6,-0.5 -3.4,-1.5c-0.9,-1 -1.3,-2.2 -1.3,-3.7c0,-1 0.2,-2.1 0.6,-3.3c0.4,-1.2 1.1,-2.2 2,-3c0.9,-0.8 2,-1.2 3.5,-1.2c1.4,0 2.5,0.5 3.3,1.4c0.9,0.9 1.3,2.2 1.3,3.8c-0.1,1.2 -0.3,2.4 -0.8,3.5z" fill="#FF6F26"/>
  </g>
 </g>
</svg>